<?xml version="1.0" standalone="no"?>
<!DOCTYPE svg PUBLIC "-//W3C//DTD SVG 20010904//EN"
 "http://www.w3.org/TR/2001/REC-SVG-20010904/DTD/svg10.dtd">
<svg version="1.0" xmlns="http://www.w3.org/2000/svg"
 width="700.000000pt" height="700.000000pt" viewBox="0 0 700.000000 700.000000"
 preserveAspectRatio="xMidYMid meet">
<metadata>
Created by potrace 1.11, written by Peter Selinger 2001-2013
</metadata>
<g transform="translate(0.000000,700.000000) scale(0.100000,-0.100000)"
fill="#000000" stroke="none">
<path d="M628 6990 c-161 -27 -301 -103 -419 -226 -82 -87 -129 -165 -171
-285 l-33 -94 0 -2885 0 -2885 32 -90 c45 -131 94 -208 192 -305 95 -95 188
-150 321 -192 l75 -23 2875 0 2875 0 75 23 c133 42 226 97 321 192 98 97 147
174 192 305 l32 90 0 2885 0 2885 -33 94 c-42 120 -89 198 -171 285 -99 102
-183 156 -323 203 l-83 28 -2855 1 c-1570 1 -2876 -2 -2902 -6z m3148 -1580
c368 -30 647 -142 866 -348 219 -207 327 -473 328 -807 0 -376 -134 -671 -398
-871 -93 -69 -268 -160 -367 -190 -33 -10 -64 -21 -69 -25 -4 -4 218 -355 495
-781 276 -425 517 -797 536 -825 l34 -53 -365 0 -364 0 -495 777 -494 778
-422 3 -421 2 0 -780 0 -780 -315 0 -315 0 0 1955 0 1955 819 0 c477 0 872 -4
947 -10z"/>
<path d="M2640 4240 l0 -640 518 0 c405 0 538 3 615 15 241 36 389 129 470
295 48 97 67 188 67 328 0 306 -123 497 -377 584 -145 50 -245 58 -795 58
l-498 0 0 -640z"/>
</g>
</svg>
