<svg width="536" height="270" viewBox="0 0 536 270" fill="none" xmlns="http://www.w3.org/2000/svg">
<path d="M257 133L135.536 11.5355C133.583 9.58291 130.417 9.58291 128.464 11.5355L10.5355 129.464C8.58291 131.417 8.58291 134.583 10.5355 136.536L128.464 254.464C130.417 256.417 133.583 256.417 135.536 254.464L257 133ZM257 133L378.464 11.5355C380.417 9.58291 383.583 9.58291 385.536 11.5355L503.464 129.464C505.417 131.417 505.417 134.583 503.464 136.536L385.536 254.464C383.583 256.417 380.417 256.417 378.464 254.464L257 133Z" stroke="#E5E5EA" stroke-width="18"/>
<g style="mix-blend-mode:multiply">
<circle cx="226.5" cy="128.5" r="80.5" fill="#5758FF"/>
</g>
<g style="mix-blend-mode:multiply">
<circle cx="477" cy="133" r="40" fill="#5758FF"/>
</g>
</svg>
